<svg version="1.2" xmlns="http://www.w3.org/2000/svg" viewBox="0 0 512 512" width="512" height="512">
	<title>DALL·E 2023-10-25 20</title>
	<style>
		.s0 { fill: #7898a4 } 
		.s1 { fill: #f2f4ec } 
		.s2 { fill: #004562 } 
	</style>
	<g id="Folder 1">
		<path id="Path 0" class="s0" d="m119 0.9c-2.9 0.3-8 1.2-11.4 2-3.3 0.7-9.9 2.6-14.7 4.1-4.7 1.5-12.9 4.9-18.3 7.5-5.4 2.6-12.7 6.6-16.3 8.9-4 2.6-10.7 8.3-17.2 14.7-5.8 5.8-13.1 13.8-16.1 17.8-3.1 4-7.9 12.1-11.1 18.4-3.1 6.2-6.5 14.2-7.7 17.7-1.1 3.6-2.8 10.1-3.9 14.5l-1.8 8c-0.5 231.1-0.3 272.7 0.3 278.9 0.5 4.9 1.8 12.5 2.8 16.9 1.1 4.4 3.5 12 5.3 16.9 1.9 4.9 5.1 12.1 7.2 16 2.2 3.9 6.8 10.9 10.4 15.6 3.5 4.7 9.3 11.4 12.8 14.8 3.5 3.4 9.2 8.3 12.7 10.9 3.4 2.5 9.6 6.5 13.6 8.8 4.1 2.2 10.9 5.5 15.1 7.3 4.3 1.8 11.1 4.2 15.1 5.4 4 1.1 11.7 2.9 17.1 3.8l9.8 1.8c258.2 0 268.8-0.1 276-1.4 4.2-0.8 10.5-2.1 13.8-3 3.4-0.8 9.5-2.7 13.5-4.1 4-1.4 11.2-4.5 15.9-6.9 4.7-2.4 11.8-6.8 15.9-9.7 4-3 10.6-8.7 14.6-12.7 4-4 10-10.8 13.4-15.3 3.4-4.5 8.2-12.5 11.2-18.4 2.9-5.8 6.3-13.7 7.6-17.7 1.3-4 3-9.8 3.7-12.9 0.7-3.1 1.7-8.1 2.2-11.2 0.7-4.1 1.1-43.6 1.3-140.7 0.2-90.7 0-136.3-0.6-139-0.4-2.3-1.4-7.1-2.1-10.9-0.7-3.8-2.8-11.3-4.6-16.9-1.8-5.5-4.6-12.6-6.1-15.6-1.6-3.1-4.7-8.6-6.8-12.1-2.2-3.5-6.3-9.3-9.2-12.9-2.9-3.5-8.9-9.8-13.3-14-4.4-4.2-11.7-10.1-16.2-13.1-4.5-2.9-11.6-7-15.9-8.9-4.3-2-11.2-4.9-15.5-6.4-4.3-1.6-12.3-3.8-17.9-5.1l-10.2-2.3c-208.5-0.2-271.5 0.1-274.4 0.5z"/>
		<path id="Path 0" class="s1" d="m231.9 51.6c-4.9 0.4-16.4 1.8-25.6 3.1-9.2 1.3-22.2 3.6-29 5.2-6.7 1.5-16.2 4.1-21.2 5.7-4.9 1.6-13 4.9-17.9 7.3-4.9 2.5-11.4 6-14.3 7.8-2.9 1.9-8.9 6.5-13.4 10.3-4.5 3.7-11.3 10.4-15.2 14.8-3.9 4.3-9.1 11-11.5 14.8-2.5 3.7-6 9.7-7.8 13.2-1.8 3.6-4.2 8.8-5.3 11.7-1.2 2.9-3.2 9.5-4.5 14.9-1.4 5.3-3.1 14.5-3.9 20.4-1 8.2-1.3 13.9-0.9 23 0.3 7.2 1.2 15.6 2.2 20.9 1 4.8 2.7 11.7 3.8 15.2 1.2 3.6 3.5 10.1 5.2 14.5 1.7 4.4 6.1 14.7 9.8 22.9 3.6 8.2 9.8 20.5 13.6 27.3 3.9 6.9 9.6 16.6 12.7 21.7 3.1 5.1 8.9 14 12.8 19.7 4 5.8 11.9 16.5 17.6 23.9 5.8 7.3 15.1 18.7 20.7 25.2 5.6 6.6 16.4 18.1 24 25.6 7.7 7.6 17.2 16.4 21.2 19.6 4.1 3.2 10.9 7.6 15.1 9.8 4.3 2.1 10.5 4.7 13.9 5.7 4.6 1.3 9.1 1.8 18.3 2.1 9.8 0.4 13.6 0.2 18.8-0.9 3.6-0.8 9.4-2.5 13-3.9 3.6-1.4 8.8-3.7 11.4-5.2 2.7-1.5 6.4-3.9 8.2-5.2 1.8-1.4 7.6-6.4 12.9-11 5.2-4.7 15.7-15 23.2-23 7.5-7.9 18.3-20.2 24-27.3 5.8-7.1 12.9-16.3 15.9-20.5 3-4.2 7.3-10.4 9.7-13.7 2.3-3.3 8.5-13.1 13.8-21.7 5.3-8.6 12.8-21.8 16.6-29.3 3.9-7.5 9.8-19.6 13.1-26.9 3.2-7.3 7.5-18.1 9.5-23.9 2-5.9 4.5-15.1 5.6-20.5 1.4-6.6 2.2-13.9 2.6-21.9 0.3-7.4 0.1-15.6-0.5-20.9-0.5-4.9-1.6-11.8-2.5-15.3-0.8-3.6-2.7-10.1-4.1-14.5-1.4-4.4-4.9-12.7-7.8-18.5-2.9-5.7-7.7-13.8-10.7-18-3.1-4.2-9.6-11.6-14.5-16.6-4.9-4.9-11.2-10.5-13.9-12.5-2.7-2-8.7-6-13.4-8.7-4.7-2.8-11.7-6.5-15.5-8.2-3.8-1.6-11-4.2-15.9-5.8-4.9-1.5-13.2-3.7-18.3-4.8-5.2-1.1-13.8-2.8-19.2-3.7-5.4-0.9-13.6-2-18.4-2.4-4.7-0.5-13.8-1.2-20.3-1.7-6.5-0.4-17-0.7-23.3-0.6-6.2 0-15.4 0.4-20.4 0.8z"/>
		<path id="Path 0" class="s2" d="m236 84.4c-4.5 0.4-11.8 1.1-16.3 1.6-4.5 0.5-14.2 2-21.6 3.4-7.4 1.3-17.7 3.6-22.8 5.1-5.2 1.4-12.1 3.8-15.5 5.1-3.4 1.4-8.3 3.8-11 5.2-2.7 1.5-8.2 5.3-12.2 8.3-4.1 3.1-10.1 8.5-13.5 12-3.4 3.5-8.3 9.6-11 13.5-2.7 4-6.3 10-7.9 13.3-1.7 3.3-4.1 9.3-5.5 13.3-1.3 4-3 10-3.7 13.4-0.7 3.5-1.5 9.4-1.7 13.3-0.4 4.6-0.1 10.2 0.8 16.3 0.7 5.1 2 11.9 2.8 15.2 0.9 3.4 3.5 11.1 5.8 17.3 2.3 6.2 7.6 18.2 11.8 26.6 4.1 8.4 11.1 21.4 15.5 28.9 4.4 7.5 11.7 19.3 16.3 26.1 4.6 6.9 12.9 18.4 18.6 25.7 5.6 7.3 14.8 18.5 20.3 24.9 5.6 6.5 14.9 16.4 20.7 22 5.8 5.7 13.7 13 17.5 16.2 3.8 3.1 8.9 6.7 11.4 7.9 2.5 1.2 6.7 2.7 9.4 3.4 2.7 0.6 8.1 1.2 12 1.2 5.3 0 8.7-0.5 13.5-2 3.4-1.1 8.1-3.1 10.4-4.5 2.2-1.4 6.8-4.8 10.1-7.6 3.4-2.8 10.4-9.3 15.5-14.6 5.2-5.2 13.6-14.2 18.8-19.9 5.2-5.8 12.4-14.1 16-18.5 3.6-4.4 8.6-10.8 11-14.1 2.5-3.3 7.8-10.9 11.9-16.9 4-5.9 9.2-13.7 11.4-17.3 2.3-3.5 6.5-10.5 9.4-15.6 2.9-5.1 7.3-13.3 9.8-18.1 2.5-4.9 7.1-15 10.4-22.5 3.2-7.5 7-17.7 8.5-22.5 1.5-4.9 3.3-12.1 4-16.1 0.8-4.2 1.3-11.8 1.3-17.9 0-6.5-0.4-12.9-1.2-16.5-0.7-3.2-2.2-8.9-3.4-12.6-1.1-3.8-3.5-9.9-5.3-13.7-1.7-3.7-5.5-10.3-8.4-14.5-2.8-4.2-7.7-10.3-10.7-13.5-3.1-3.3-9.1-8.6-13.4-11.7-4.2-3.2-11.4-7.6-15.9-9.9-4.4-2.3-12.5-5.6-17.9-7.4-5.4-1.7-15.3-4.3-22-5.7-6.7-1.3-18.5-3.1-26.1-4-7.8-0.9-21.6-1.8-31.8-2-9.9-0.1-21.6 0-26.1 0.4z"/>
		<g id="Layer 4">
			<path id="Path 0" class="s1" d="m191.7 122.9c-1.1 0.4-3 1.8-4.3 3.2-1.3 1.4-2.5 3.3-2.7 4.3-0.3 1-0.5 21-0.7 44.4l-0.2 42.6 26.1-0.8 0.5-85.2c-2.9-4.3-5.1-6.4-6.6-7.4-2-1.3-4-1.8-6.5-1.8-2 0-4.5 0.4-5.6 0.7zm57.2 0.8c-1.5 0.9-3.4 2.9-4.3 4.3-1.6 2.5-1.6 4.1-1.6 45.8v43.2h26c0-75.9-0.2-85.7-1-87.8-0.6-1.4-2.4-3.5-3.9-4.6-2.1-1.5-4.1-2.1-7.7-2.3-3.8-0.2-5.5 0.1-7.5 1.4zm58.7 0.1c-1.5 0.9-3.4 2.8-4.3 4.2-1.6 2.5-1.6 4.1-1.6 45.8v43.2l25.6-0.4 0.5-85.2c-2.9-4.3-5.1-6.4-6.6-7.4-2-1.3-4-1.9-6.9-1.8-2.6 0-5 0.6-6.7 1.6z"/>
			<path id="Path 1" class="s0" d="m197.1 216.8l-12.8 0.2c0 94.9 0.1 99.1 1.4 101.8 0.8 1.7 2.5 3.8 3.9 4.9 1.3 1 3.9 2.1 5.7 2.3 2.4 0.4 4.2 0.1 7.1-1.2 2.4-1 4.5-2.7 5.5-4.3 0.9-1.4 1.8-4.1 2.1-5.8 0.2-1.8 0.3-24.6 0.2-50.7l-0.3-47.4zm117.4 0l-12.8 0.2v99.3c3 5.3 4.9 7.1 7.3 8.3 2.5 1.2 4.7 1.7 6.6 1.5 1.5-0.2 4.1-1 5.7-1.9 1.6-1 3.6-3.2 4.6-5.2l1.9-3.5-0.4-98.9zm-71.6 73.4c0 49.7 0.3 73.8 0.9 75.3 0.5 1.2 1.9 3.2 3.1 4.5 1.2 1.2 3.4 2.6 5 3 1.7 0.6 4.2 0.7 6.1 0.3 1.8-0.4 4.3-1.6 5.6-2.7 1.3-1.1 3-3.2 3.7-4.5 1.2-2.1 1.3-10 1.5-75.7l0.3-73.4h-26.2z"/>
		</g>
	</g>
</svg>